<svg id="Layer_1" data-name="Layer 1" xmlns="http://www.w3.org/2000/svg" viewBox="0 0 64 64"><defs><style>.cls-1{fill:none;stroke:#215979;stroke-linejoin:round;stroke-width:1.5px;}</style></defs><path class="cls-1" d="M50.93,11.55V4.12L48.55,1H5.46V52.9l3.11,2.73V45.84l8.44,7V63h40.8V52.81l-7.33-7V41h8.06V36.6H17v4.2L8.57,33.56v-22l8.16,8.53-.13,4.26,34.24-.41h7.7V19.62Z"/><polygon class="cls-1" points="16.73 20.08 16.59 24.34 8.57 16.32 8.57 11.55 16.73 20.08"/><polygon class="cls-1" points="50.94 28.97 8.57 28.97 8.57 16.32 16.59 24.34 50.84 23.93 50.94 28.97"/><polygon class="cls-1" points="17.01 36.59 17.01 40.8 8.57 33.56 8.57 28.97 10.81 30.99 17.01 36.59"/><polygon class="cls-1" points="17.01 52.81 17.01 62.99 8.57 55.63 8.57 45.84 17.01 52.81"/><line class="cls-1" x1="8.57" y1="45.84" x2="8.57" y2="33.56"/><polyline class="cls-1" points="8.57 4.49 8.57 11.55 50.94 11.55 50.94 4.49 8.57 4.49 5.46 1.01"/><polygon class="cls-1" points="58.55 36.59 17.01 36.59 10.81 30.99 8.57 28.97 50.94 28.97 58.55 36.59"/><polyline class="cls-1" points="58.55 23.93 58.55 20.08 16.73 20.08"/><polyline class="cls-1" points="17.01 40.8 50.48 40.98 50.48 45.84 8.57 45.84"/><line class="cls-1" x1="57.81" y1="52.81" x2="17.01" y2="52.81"/></svg>