<svg id="Layer_1" data-name="Layer 1" xmlns="http://www.w3.org/2000/svg" viewBox="0 0 64 64"><defs><style>.cls-1{fill:none;stroke:#215979;stroke-linejoin:round;stroke-width:1.5px;}</style></defs><path class="cls-1" d="M45.78,8.72c-6.19.87-9.05,3.85-9.22,8.55V63.08l9.1-4.65.13-57a.55.55,0,0,0-.53-.54H28a.57.57,0,0,0-.56.57V6.87c-5.6.88-8.65,3.63-9.18,8.24v41.4l18.35,6.57"/><line class="cls-1" x1="18.21" y1="50.63" x2="36.56" y2="56.72"/><line class="cls-1" x1="18.21" y1="41.54" x2="36.56" y2="46.8"/><line class="cls-1" x1="18.21" y1="39.76" x2="36.56" y2="45.03"/><polyline class="cls-1" points="21.38 40.67 27.39 39.06 36.56 41.2"/><polyline class="cls-1" points="20.8 51.49 27.22 49.69 36.56 52.6"/><line class="cls-1" x1="18.21" y1="30.74" x2="36.56" y2="34.7"/><line class="cls-1" x1="18.21" y1="28.75" x2="36.56" y2="32.72"/><polyline class="cls-1" points="23.09 29.81 27.39 28.75 36.56 30.19"/><line class="cls-1" x1="18.21" y1="19.52" x2="36.56" y2="22.19"/><line class="cls-1" x1="18.21" y1="17.61" x2="36.56" y2="20.14"/><line class="cls-1" x1="27.39" y1="18.87" x2="27.39" y2="6.87"/><line class="cls-1" x1="27.39" y1="20.85" x2="27.39" y2="28.75"/><line class="cls-1" x1="27.39" y1="32.72" x2="27.39" y2="39.09"/><line class="cls-1" x1="27.22" y1="44.15" x2="27.22" y2="49.75"/></svg>