<svg id="Layer_1" data-name="Layer 1" xmlns="http://www.w3.org/2000/svg" viewBox="0 0 64 64"><defs><style>.cls-1{fill:none;stroke:#215979;stroke-linejoin:round;stroke-width:1.5px;}</style></defs><path class="cls-1" d="M49.19,1.21H7.44L7.08,55.37l8.3,7.42H56.92V47.32H15.38V27.38h33.7l7.84,7.37V22.6H15.38v-8h33.7l7.84,8V8.94Zm-.11,33.54v5l7.84,7.58V34.75Z"/><rect class="cls-1" x="15.38" y="34.75" width="33.7" height="4.98"/><polyline class="cls-1" points="7.44 1.21 15.38 9.15 49.08 9.15"/><polyline class="cls-1" points="56.92 9.15 49.08 9.15 49.08 14.61"/><line class="cls-1" x1="49.08" y1="27.38" x2="49.08" y2="22.6"/><line class="cls-1" x1="15.38" y1="27.38" x2="15.38" y2="22.6"/><polygon class="cls-1" points="56.92 34.75 15.38 34.75 15.38 27.38 49.08 27.38 56.92 34.75"/><polygon class="cls-1" points="56.92 22.6 15.38 22.6 15.38 14.61 49.08 14.61 56.92 22.6"/><line class="cls-1" x1="15.38" y1="14.61" x2="15.38" y2="9.15"/><line class="cls-1" x1="15.38" y1="27.38" x2="15.38" y2="22.6"/><polygon class="cls-1" points="56.92 47.32 15.38 47.32 15.38 39.74 49.08 39.74 56.92 47.32"/><line class="cls-1" x1="15.38" y1="62.79" x2="15.38" y2="47.32"/></svg>