<svg id="Layer_1" data-name="Layer 1" xmlns="http://www.w3.org/2000/svg" viewBox="0 0 64 64"><defs><style>.cls-1,.cls-2{fill:none;stroke:#215979;stroke-width:1.5px;}.cls-1{stroke-linejoin:round;}.cls-2{stroke-miterlimit:10;}</style></defs><path class="cls-1" d="M37.1.92V13.75l-2.46.07L21,14.22h0C17.91,2.13,14.25.92,14.25.92Z"/><path class="cls-1" d="M47.42,28,37.1,29l-5.46.55-7.86.8v0c-.12-1.14-.25-2.23-.39-3.29h0l8.82-.67,4.88-.37Z"/><path class="cls-1" d="M37.1,14.73V26.15l-4.88.37-8.82.67h0a114.47,114.47,0,0,0-2.12-11.9l13.18-.43Z"/><path class="cls-1" d="M21.27,15.25a114.47,114.47,0,0,1,2.12,11.9Z"/><path class="cls-1" d="M37.1,29v9.2l-7.35,1.23-5.13.86h0c-.23-3.61-.51-6.89-.84-9.87v-.05l7.86-.8Z"/><path class="cls-1" d="M23.78,30.44c.33,3,.61,6.26.84,9.87Z"/><path class="cls-1" d="M37.1,44.87v5.42l-9.82,2.15-2.13.47h0c0-1.85-.09-3.63-.16-5.35v-.34l3.43-.65Z"/><path class="cls-1" d="M25,47.52c.07,1.72.12,3.5.16,5.35Z"/><path class="cls-1" d="M37.1.92a82.62,82.62,0,0,1,6.47,13.6l-6.47-.77Z"/><path class="cls-1" d="M47.42,28,37.1,26.15V14.73l6.47-.21A92.92,92.92,0,0,1,47.42,28Z"/><path class="cls-1" d="M49.41,42.52,37.1,38.24V29l10.32-1A110.9,110.9,0,0,1,49.41,42.52Z"/><path class="cls-1" d="M25.26,63.08l-11-7V.92S17.91,2.13,21,14.22h0c.09.34.17.68.26,1l2.12,11.9c.14,1.06.27,2.15.39,3.29l.84,9.87h0q.23,3.34.36,7.08v.11l.16,5.35h0C25.23,56.1,25.26,59.48,25.26,63.08Z"/><path class="cls-1" d="M23.39,27.15l-2.12-11.9A114.47,114.47,0,0,1,23.39,27.15Z"/><path class="cls-1" d="M24.62,40.31l-.84-9.87C24.11,33.42,24.39,36.7,24.62,40.31Z"/><path class="cls-1" d="M25.15,52.87,25,47.52C25.06,49.24,25.11,51,25.15,52.87Z"/><path class="cls-1" d="M49.68,56.42,25.26,63.08c0-3.6,0-7-.11-10.17l2.13-.47,9.82-2.15V44.87l12.31-2.35A134.34,134.34,0,0,1,49.68,56.42Z"/><path class="cls-1" d="M49.41,42.52,37.1,44.87l-8.69,1.66L25,47.18v.23q-.13-3.73-.36-7.08l5.13-.86,7.35-1.23Z"/><path class="cls-2" d="M43.57,14.52l-6.47.21-2.65.09-13.18.43c-.09-.35-.17-.69-.26-1l13.63-.4,2.46-.07Z"/><path class="cls-1" d="M37.1,50.29l12.58,6.13Z"/></svg>